<?xml version="1.0" standalone="no"?><!DOCTYPE svg PUBLIC "-//W3C//DTD SVG 1.1//EN" "http://www.w3.org/Graphics/SVG/1.1/DTD/svg11.dtd"><svg t="1718593008290" class="icon" viewBox="0 0 1024 1024" version="1.1" xmlns="http://www.w3.org/2000/svg" p-id="5361" data-darkreader-inline-fill="" width="32" height="32" xmlns:xlink="http://www.w3.org/1999/xlink"><path d="M896 63.488q26.624 0 45.568 18.432t18.944 45.056l0 64.512-70.656 0q-3.072 34.816-6.656 82.944t-7.68 101.376-8.704 106.496-9.728 99.328-9.728 79.872-8.704 47.104q-12.288 40.96-26.624 72.192t-44.032 43.52l0 39.936q0 13.312-9.216 22.528t-22.528 9.216q-14.336 0-23.552-9.216t-9.216-22.528l0-31.744-447.488 0 0 31.744q0 13.312-9.216 22.528t-23.552 9.216q-13.312 0-22.528-9.216t-9.216-22.528l0-38.912q-31.744-11.264-49.664-42.496t-24.064-89.6q-2.048-19.456-5.632-55.296t-7.68-80.896-8.704-95.232-9.216-99.328-8.704-93.696-7.168-77.312l-70.656 0 0-64.512q0-26.624 18.432-45.056t45.056-18.432l832.512 0zM522.24 317.44q21.504 0 44.032 1.024 19.456 1.024 43.52 3.072t47.616 6.144q19.456 3.072 31.232 9.728t18.944 14.848q7.168-10.24 8.192-20.48 3.072-14.336 8.192-20.992t14.336-9.216 22.528-2.56 32.768-2.048q10.24-1.024 17.408-1.024l11.264 0 10.24-104.448-704.512 0 13.312 143.36q12.288-11.264 37.376-22.528t67.072-7.168q32.768 4.096 51.712 10.752t29.184 12.8q11.264 8.192 15.36 16.384 2.048 13.312 6.144 23.552 3.072 8.192 7.68 15.36t9.728 7.168 15.36 3.072 21.504 7.168q0-11.264 5.12-22.528t18.432-19.456q19.456-13.312 36.864-21.504t30.72-13.312q15.36-5.12 28.672-7.168zM703.488 444.416l0-7.168-2.048 7.168 2.048 0zM807.936 444.416l1.024-14.336q-6.144 8.192-14.336 14.336l13.312 0z" p-id="5362" fill="#d81e06" data-darkreader-inline-fill="" style="--darkreader-inline-fill: #ad1805;"></path></svg>